# xmcd CD database file
#
# Track frame offsets:
#	150
#	5978
#	25283
#	41995
#	61095
#	88790
#	122690
#	144135
#	159333
#	185083
#	222513
#
# Disc length: 3197 seconds
#
# Revision: 7
# Processed by: cddbd v1.5.2PL0 Copyright (c) Steve Scherf et al.
# Submitted via: CDex 1.51
#
DISCID=9b0c7b0b
DTITLE=Gary Moore - After The War
DYEAR=1989
DGENRE=Rock
TTITLE0=Dunluce (Part 1)
TTITLE1=After The War
TTITLE2=Speak For Yourself
TTITLE3=Livin' On Dreams
TTITLE4=Led Clones
TTITLE5=The Messiah Will Come Again
TTITLE6=Running From The Storm
TTITLE7=This Thing Called Love
TTITLE8=Ready For Love
TTITLE9=Blood Of Emeralds
TTITLE10=Dunluce (Part 2)
EXTD=YEAR: 1989
EXTT0=
EXTT1=
EXTT2=
EXTT3=
EXTT4=
EXTT5=
EXTT6=
EXTT7=
EXTT8=
EXTT9=
EXTT10=
PLAYORDER=
